<svg width="24" height="25" viewBox="0 0 24 25" fill="none" xmlns="http://www.w3.org/2000/svg">
<path d="M20.225 19.5264C19.0078 17.4222 17.1322 15.9134 14.9433 15.1982C16.026 14.5536 16.8672 13.5715 17.3378 12.4025C17.8083 11.2336 17.8821 9.94255 17.5478 8.72763C17.2136 7.51271 16.4897 6.4411 15.4875 5.67736C14.4853 4.91363 13.26 4.5 12 4.5C10.7399 4.5 9.51468 4.91363 8.51245 5.67736C7.51022 6.4411 6.78639 7.51271 6.45214 8.72763C6.11789 9.94255 6.19168 11.2336 6.6622 12.4025C7.13271 13.5715 7.97393 14.5536 9.05666 15.1982C6.86775 15.9126 4.99212 17.4214 3.77499 19.5264C3.73036 19.5992 3.70075 19.6802 3.68792 19.7646C3.67509 19.849 3.6793 19.9351 3.70029 20.0179C3.72128 20.1006 3.75864 20.1783 3.81015 20.2464C3.86166 20.3145 3.92629 20.3716 4.00022 20.4143C4.07415 20.457 4.15588 20.4844 4.24059 20.4951C4.32531 20.5057 4.41129 20.4992 4.49346 20.476C4.57563 20.4529 4.65233 20.4135 4.71904 20.3602C4.78574 20.3069 4.84109 20.2408 4.88183 20.1658C6.38746 17.5637 9.04867 16.0101 12 16.0101C14.9513 16.0101 17.6125 17.5637 19.1181 20.1658C19.1589 20.2408 19.2142 20.3069 19.2809 20.3602C19.3476 20.4135 19.4243 20.4529 19.5065 20.476C19.5887 20.4992 19.6746 20.5057 19.7594 20.4951C19.8441 20.4844 19.9258 20.457 19.9997 20.4143C20.0737 20.3716 20.1383 20.3145 20.1898 20.2464C20.2413 20.1783 20.2787 20.1006 20.2997 20.0179C20.3206 19.9351 20.3249 19.849 20.312 19.7646C20.2992 19.6802 20.2696 19.5992 20.225 19.5264ZM7.52466 10.2561C7.52466 9.37101 7.78714 8.50576 8.27889 7.7698C8.77064 7.03383 9.46959 6.46022 10.2873 6.1215C11.1051 5.78277 12.0049 5.69414 12.8731 5.86683C13.7412 6.03951 14.5386 6.46574 15.1645 7.09162C15.7904 7.7175 16.2166 8.51493 16.3893 9.38305C16.562 10.2512 16.4733 11.151 16.1346 11.9688C15.7959 12.7865 15.2223 13.4855 14.4863 13.9772C13.7504 14.469 12.8851 14.7315 12 14.7315C10.8134 14.7302 9.67586 14.2583 8.83685 13.4193C7.99785 12.5803 7.52593 11.4427 7.52466 10.2561Z" fill="#828282"/>
</svg>
